<svg xmlns="http://www.w3.org/2000/svg" viewBox="0 0 108 108">
  <defs>
    <linearGradient id="voice-shadow" x1="54" y1="54" x2="108" y2="108" gradientUnits="userSpaceOnUse">
      <stop offset="0" stop-color="#000000" stop-opacity="0.2"/>
      <stop offset="1" stop-color="#000000" stop-opacity="0"/>
    </linearGradient>
    <linearGradient id="voice-finish" x1="0" y1="0" x2="108" y2="108" gradientUnits="userSpaceOnUse">
      <stop offset="0" stop-color="#FFFFFF" stop-opacity="0.10"/>
      <stop offset="1" stop-color="#FFFFFF" stop-opacity="0"/>
    </linearGradient>
    <clipPath id="voice-clip"><rect width="108" height="108"/></clipPath>
  </defs>
  <g clip-path="url(#voice-clip)">
    <!-- background -->
    <rect width="108" height="108" fill="#003b7f"/>
    <path d="M98.4 39.64A12.59 12.59 0 0 0 90.71 36s-10.28 2.91-12.47 8.45l-7.93 20.06a11.9 11.9 0 0 1-22.12 0l-0.93 0.37a13 13 0 0 0 3.25 4.79L88.84 108H108V49.24z"
          fill="url(#voice-shadow)"/>
    <path d="M-11.91 64.5a11.9 11.9 0 0 0 22.12 0l7.93-20a11.9 11.9 0 0 1 22.12 0l7.93 20a11.9 11.9 0 0 0 22.12 0l7.93-20.05a11.9 11.9 0 0 1 22.12 0l7.93 20.06a11.9 11.9 0 0 0 22.12 0"
          fill="none" stroke="#ffffff" stroke-width="2"/>
    <!-- foreground -->
    <path d="M89.05 39.17a12.59 12.59 0 0 0-7.7-3.64S71.08 38.44 68.89 44L61 64a11.93 11.93 0 0 1-19.52 4L41 67.79l-0.11-0.37a12.15 12.15 0 0 1-2-3.4l-0.93 0.37a13 13 0 0 0 3.25 4.79L80 108h28V58.11z"
          fill="url(#voice-shadow)"/>
    <path d="M-21.26 64a11.9 11.9 0 0 0 22.13 0l7.92-20a11.9 11.9 0 0 1 22.12 0l7.92 20A11.9 11.9 0 0 0 61 64l7.93-20A11.9 11.9 0 0 1 91 44l7.93 20a11.9 11.9 0 0 0 22.12 0"
          fill="none" stroke="#ffffff" stroke-width="2" stroke-miterlimit="10"/>
    <rect width="108" height="108" fill="url(#voice-finish)"/>
  </g>
</svg>
